# Blender 3.5.1
# www.blender.org
mtllib ninthRadialCenter.mtl
o Cylinder
v 0.000000 0.000000 -1.000000
v 0.642788 0.000000 -0.766044
v 0.984808 0.000000 -0.173648
v 0.866025 0.000000 0.500000
v 0.342020 0.000000 0.939693
v -0.342020 0.000000 0.939693
v -0.866025 0.000000 0.500000
v -0.984808 0.000000 -0.173648
v -0.642788 0.000000 -0.766044
vn -0.0000 1.0000 -0.0000
vt 0.250000 0.490000
vt 0.404269 0.433851
vt 0.486354 0.291676
vt 0.457846 0.130000
vt 0.332085 0.024474
vt 0.167915 0.024474
vt 0.042154 0.130000
vt 0.013646 0.291676
vt 0.095731 0.433851
s 0
f 4/4/1 3/3/1 6/6/1
f 6/6/1 5/5/1 4/4/1
f 7/7/1 6/6/1 1/1/1
f 3/3/1 1/1/1 6/6/1
f 8/8/1 7/7/1 1/1/1
f 1/1/1 9/9/1 8/8/1
f 3/3/1 2/2/1 1/1/1
